<svg width="16" height="20" viewBox="0 0 16 20" fill="none" xmlns="http://www.w3.org/2000/svg">
<path d="M1.55004 5.80095C1.26188 3.90299 2.6001 2.19815 4.64441 1.57354C5.00719 1.46263 5.39861 1.4942 5.73891 1.66183C6.07922 1.82946 6.34281 2.12054 6.47598 2.47575L7.13227 4.22586C7.23792 4.5074 7.25703 4.8141 7.18713 5.10658C7.11724 5.39906 6.96153 5.66398 6.74001 5.86734L4.78774 7.65516C4.6915 7.74347 4.6198 7.85521 4.57961 7.97948C4.53942 8.10375 4.53211 8.23632 4.55841 8.36425L4.57652 8.44271L4.62329 8.63884C4.86608 9.59181 5.23601 10.5078 5.72314 11.3621C6.25377 12.2699 6.91228 13.0965 7.67843 13.8167L7.73877 13.871C7.83624 13.9576 7.95445 14.0173 8.08189 14.0446C8.20934 14.0718 8.34166 14.0656 8.46597 14.0264L10.99 13.2314C11.2769 13.1413 11.5841 13.139 11.8723 13.2247C12.1605 13.3105 12.4164 13.4804 12.6074 13.7126L13.8023 15.1625C14.3002 15.766 14.2398 16.6531 13.668 17.1857C12.1035 18.6446 9.95205 18.9433 8.45541 17.7409C6.62086 16.2611 5.07432 14.4563 3.89307 12.4167C2.70223 10.3786 1.90679 8.13407 1.54853 5.80095H1.55004ZM6.14105 8.46383L7.75839 6.97926C8.2017 6.57271 8.5134 6.04295 8.65345 5.45798C8.79351 4.87302 8.75555 4.25954 8.54443 3.6963L7.88965 1.9462C7.62161 1.23144 7.09114 0.645778 6.4063 0.308548C5.72147 -0.0286811 4.93383 -0.0920994 4.20386 0.131216C1.6647 0.908202 -0.373566 3.18485 0.0579255 6.02877C0.359668 8.01423 1.05518 10.5398 2.58954 13.177C3.86397 15.3763 5.53222 17.3222 7.51096 18.9177C9.75592 20.7206 12.7522 20.105 14.6985 18.2916C15.8541 17.2144 15.9718 15.425 14.9685 14.206L13.7736 12.7546C13.3914 12.2906 12.8792 11.9514 12.3029 11.7805C11.7266 11.6095 11.1124 11.6146 10.5389 11.7951L8.44334 12.4544C7.90227 11.8965 7.42833 11.2772 7.03119 10.6092C6.64756 9.93386 6.34859 9.21381 6.14105 8.46534V8.46383Z" fill="#BFBFBF"/>
</svg>
