<svg width="15" height="15" viewBox="0 0 15 15" fill="none" xmlns="http://www.w3.org/2000/svg">
<path d="M7.5 0C3.35826 0 0 3.35826 0 7.5C0 11.6417 3.35826 15 7.5 15C11.6417 15 15 11.6417 15 7.5C15 3.35826 11.6417 0 7.5 0ZM7.87333 11.1362L7.87667 11.6669C7.87667 11.7405 7.81641 11.8025 7.74275 11.8025H7.2673C7.19364 11.8025 7.13337 11.7422 7.13337 11.6685V11.1429C5.64676 11.0324 4.94699 10.1853 4.87165 9.26451C4.86496 9.18583 4.9269 9.11886 5.00558 9.11886H5.77902C5.84431 9.11886 5.90123 9.16574 5.91127 9.22935C5.99665 9.76004 6.41016 10.1568 7.15179 10.2556V7.86663L6.73828 7.76116C5.86272 7.5519 5.02902 7.00614 5.02902 5.87444C5.02902 4.65402 5.95647 3.99777 7.14174 3.88225V3.3298C7.14174 3.25614 7.20201 3.19587 7.27567 3.19587H7.74609C7.81975 3.19587 7.88002 3.25614 7.88002 3.3298V3.87723C9.02679 3.99275 9.88728 4.66239 9.98772 5.70536C9.99609 5.78404 9.93415 5.85268 9.85379 5.85268H9.10212C9.03516 5.85268 8.97824 5.80246 8.96987 5.73716C8.9029 5.24833 8.51116 4.84989 7.87333 4.76283V7.01116L8.29855 7.10993C9.38337 7.37779 10.1217 7.89676 10.1217 9.05859C10.1217 10.3192 9.18415 11.0223 7.87333 11.1362ZM6.07031 5.79743C6.07031 6.22266 6.33315 6.55246 6.899 6.7567C6.97768 6.7885 7.05636 6.81362 7.15011 6.8404V4.76451C6.53237 4.84319 6.07031 5.18973 6.07031 5.79743ZM8.02065 8.06083C7.97377 8.05078 7.9269 8.03906 7.87333 8.024V10.2623C8.5865 10.1987 9.07868 9.80692 9.07868 9.15067C9.07868 8.63672 8.8125 8.3019 8.02065 8.06083Z" fill="white"/>
</svg>
