<svg width="20" height="15" viewBox="0 0 20 15" fill="none" xmlns="http://www.w3.org/2000/svg">
<path d="M18.5714 0H1.42857C1.04969 0 0.686328 0.152182 0.418419 0.423068C0.15051 0.693954 0 1.06135 0 1.44444V13C0 13.3831 0.15051 13.7505 0.418419 14.0214C0.686328 14.2923 1.04969 14.4444 1.42857 14.4444H18.5714C18.9503 14.4444 19.3137 14.2923 19.5816 14.0214C19.8495 13.7505 20 13.3831 20 13V1.44444C20 1.06135 19.8495 0.693954 19.5816 0.423068C19.3137 0.152182 18.9503 0 18.5714 0ZM17 1.44444L10 6.34111L3 1.44444H17ZM1.42857 13V2.10167L9.59286 7.81444C9.71243 7.89831 9.85448 7.94326 10 7.94326C10.1455 7.94326 10.2876 7.89831 10.4071 7.81444L18.5714 2.10167V13H1.42857Z" fill="#BFBFBF"/>
</svg>
