<svg width="15" height="12" viewBox="0 0 15 12" fill="none" xmlns="http://www.w3.org/2000/svg">
<path d="M15 3.14842V9.76974C15 10.9145 14.0724 11.8421 12.9276 11.8421H2.07237C1.52274 11.8421 0.995627 11.6238 0.606983 11.2351C0.218338 10.8465 0 10.3194 0 9.76974V3.14842L7.26237 7.14316C7.4104 7.22447 7.59 7.22447 7.73763 7.14316L15 3.14803V3.14842ZM12.9276 8.91248e-09C13.4686 5.02719e-05 13.9881 0.211639 14.3752 0.589569C14.7623 0.9675 14.9862 1.48181 14.9992 2.02263L7.5 6.14763L0.000789416 2.02224L0.00157902 1.98671C0.0236853 1.45234 0.251529 0.947203 0.637464 0.576938C1.0234 0.206673 1.53754 -4.95604e-05 2.07237 8.91248e-09H12.9276Z" fill="white"/>
</svg>
