<svg width="20" height="20" viewBox="0 0 20 20" fill="none" xmlns="http://www.w3.org/2000/svg">
<path d="M18.0375 1.96345L1.9599 8.21044L6.72858 10.1914C8.12247 10.7696 9.22989 11.8773 9.80763 13.2714L11.7886 18.0391L18.0375 1.96345ZM19.8615 2.63694L13.6125 18.7146C13.2175 19.7317 12.0809 20.2521 11.0736 19.8798C10.8282 19.7892 10.6041 19.6488 10.4155 19.4675C10.2269 19.2862 10.0777 19.0678 9.97749 18.8262L7.99555 14.0565C7.61 13.1276 6.87164 12.3896 5.94252 12.0044L1.17483 10.0235C0.183371 9.61171 -0.268908 8.46719 0.164608 7.46585C0.271111 7.22109 0.424968 6.99981 0.617325 6.81474C0.809681 6.62967 1.03674 6.48447 1.28543 6.38749L17.3631 0.138538C17.7123 -0.00183011 18.0952 -0.0364735 18.464 0.0389126C18.8328 0.114299 19.1713 0.296391 19.4374 0.562562C19.7036 0.828733 19.8857 1.16725 19.9611 1.53605C20.0365 1.90484 20.0018 2.28766 19.8615 2.63694Z" fill="#BFBFBF"/>
</svg>
