<svg width="20" height="20" viewBox="0 0 20 20" fill="none" xmlns="http://www.w3.org/2000/svg">
<path d="M10 0C4.47717 0 0 4.47717 0 10C0 15.5228 4.47717 20 10 20C15.5228 20 20 15.5228 20 10C20 4.47717 15.5228 0 10 0ZM6.62696 17.9861C4.51038 17.0898 2.83589 15.3903 1.97102 13.2607C1.10616 11.131 1.12157 8.74524 2.01388 6.62696C2.05638 6.52687 2.10083 6.42761 2.14721 6.32925L4.33333 8.29692V10.9317L7.54583 14.3333H9.16667V16.377L7.20617 18.2068C7.01111 18.1403 6.81804 18.0667 6.62696 17.9861ZM16.1283 16.1283C15.3245 16.9344 14.3693 17.5737 13.3176 18.0093C12.2659 18.445 11.1384 18.6684 10 18.6667C9.58564 18.6667 9.1718 18.6374 8.76158 18.5789L10.5 16.9564V13H8.12083L5.66667 10.4016V7.70308L2.82083 5.142C3.76241 3.75511 5.08381 2.66904 6.62679 2.01388C7.94712 1.45535 9.38547 1.23342 10.8127 1.368C12.24 1.50259 13.6115 1.98947 14.8042 2.78496L12.9057 5.22588L13.5511 6.83942L13.1142 7.27629L9.83846 6.62117L8 8V11.6667H15.3333L17.431 14.4636C17.0663 15.0695 16.6288 15.6286 16.1283 16.1283ZM18.6667 10C18.6686 11.0662 18.4726 12.1235 18.0886 13.1182L16 10.3333H9.33333V8.66667L10.1615 8.0455L13.5525 8.72371L15.1156 7.16058L14.4277 5.44079L15.8527 3.60842C15.946 3.69408 16.0378 3.78186 16.1281 3.87175C16.9343 4.67549 17.5736 5.63069 18.0093 6.68241C18.4449 7.73413 18.6683 8.86161 18.6667 10Z" fill="#BFBFBF"/>
</svg>
